<svg xmlns="http://www.w3.org/2000/svg" viewBox="0 0 64 64">
  <rect width="64" height="64" rx="14" fill="#173f2c"/>
  <circle cx="32" cy="32" r="23" fill="#fffef8"/>
  <rect x="28" y="36" width="8" height="20" rx="4" fill="#173f2c"/>
  <path d="m26 35 3 15m9-15-3 15M25 43c4-4 10-4 14 0" fill="none" stroke="#e5a92e" stroke-linecap="round" stroke-width="4"/>
  <path d="M17 25c5-1 8 0 11 3h8c3-3 6-4 11-3" fill="none" stroke="#173f2c" stroke-linecap="round" stroke-width="4"/>
  <path d="m17 22 8 6m22-6-8 6" fill="none" stroke="#173f2c" stroke-linecap="round" stroke-width="3"/>
  <circle cx="14" cy="20" r="4" fill="#173f2c"/>
  <circle cx="50" cy="20" r="4" fill="#173f2c"/>
  <path d="M23 30c0-6 4-10 9-10s9 4 9 10l-3 9H26Z" fill="#173f2c"/>
  <circle cx="32" cy="29" r="7" fill="#e5a92e" stroke="#fffef8" stroke-width="2"/>
</svg>
